<svg width="127" height="105" viewBox="0 0 127 105" fill="none" xmlns="http://www.w3.org/2000/svg">
<path d="M2.6061 104.679H59.4549C60.0793 104.679 60.6766 104.381 61.0295 103.838C61.3825 103.322 61.4639 102.643 61.2196 102.073L52.885 80.9517H73.1377L64.8032 102.073C64.5588 102.67 64.6403 103.322 64.9932 103.838C65.3461 104.354 65.9434 104.679 66.5678 104.679H123.417C124.041 104.679 124.638 104.381 124.991 103.838C125.344 103.322 125.426 102.643 125.181 102.073L115.815 78.3454C115.625 77.8296 115.218 77.4495 114.702 77.2595C121.869 71.7483 126.267 63.1423 126.267 53.8575C126.267 44.7356 122.005 36.1024 114.811 30.537V2.22119C114.811 1.1624 113.969 0.320801 112.91 0.320801H13.8184C12.7596 0.320801 11.918 1.1624 11.918 2.22119V55.3235C11.918 56.3823 12.7596 57.2239 13.8184 57.2239H41.184L33.311 77.1509H11.9995C11.2122 77.1509 10.5063 77.6396 10.2348 78.3454L0.868595 102.073C0.624259 102.67 0.705704 103.322 1.05863 103.838C1.38442 104.354 1.98168 104.679 2.6061 104.679ZM120.647 100.879H69.3641L77.2372 80.9517H85.083C85.1373 80.9788 85.1916 81.006 85.2731 81.0331C85.3817 81.0874 85.4903 81.1146 85.5989 81.1689C85.7346 81.2232 85.8432 81.2775 85.9789 81.3317C86.0875 81.386 86.1961 81.4132 86.3047 81.4675C86.4405 81.5218 86.5491 81.5761 86.6848 81.6032C86.7934 81.6575 86.902 81.6847 87.0106 81.7118C87.1463 81.7661 87.2549 81.7933 87.3907 81.8476C87.4993 81.8747 87.6078 81.929 87.7436 81.9562C87.8793 82.0105 87.9879 82.0376 88.1237 82.0648C88.2323 82.0919 88.3409 82.1462 88.4766 82.1733C88.6123 82.2005 88.7209 82.2548 88.8567 82.2819C88.9653 82.3091 89.0739 82.3362 89.2096 82.3634C89.3454 82.3905 89.4811 82.4177 89.5897 82.472C89.6983 82.4991 89.8069 82.5263 89.9426 82.5534C90.0784 82.5806 90.2141 82.6077 90.3498 82.6349C90.4584 82.662 90.567 82.6892 90.7028 82.7163C90.8385 82.7435 90.9743 82.7706 91.11 82.7978C91.2186 82.8249 91.3272 82.8521 91.4629 82.8521C91.5987 82.8792 91.7344 82.9063 91.8702 82.9335C91.9788 82.9606 92.0873 82.9606 92.2231 82.9878C92.3588 83.0149 92.4946 83.0149 92.6303 83.0421C92.7389 83.0692 92.8475 83.0692 92.9832 83.0964C93.119 83.1235 93.2547 83.1235 93.4176 83.1507C93.5262 83.1507 93.6348 83.1778 93.7434 83.1778C93.8791 83.205 94.042 83.205 94.1778 83.205C94.2864 83.205 94.395 83.2321 94.5036 83.2321C94.6665 83.2321 94.8022 83.2593 94.9651 83.2593C95.0737 83.2593 95.1823 83.2864 95.2637 83.2864C95.4266 83.2864 95.6166 83.3136 95.7795 83.3136C95.861 83.3136 95.9424 83.3136 96.0239 83.3136C96.2682 83.3136 96.5397 83.3136 96.8112 83.3136C97.0827 83.3136 97.327 83.3136 97.5985 83.3136C97.6799 83.3136 97.7614 83.3136 97.8428 83.3136C98.0057 83.3136 98.1957 83.3136 98.3586 83.2864C98.4672 83.2864 98.5758 83.2864 98.6573 83.2593C98.8202 83.2593 98.9559 83.2321 99.1188 83.2321C99.2274 83.2321 99.336 83.205 99.4446 83.205C99.5803 83.205 99.7432 83.1778 99.8789 83.1778C99.9875 83.1778 100.096 83.1507 100.232 83.1507C100.368 83.1235 100.503 83.1235 100.639 83.0964C100.748 83.0692 100.883 83.0692 100.992 83.0421C101.128 83.0149 101.264 83.0149 101.399 82.9878C101.508 82.9606 101.644 82.9606 101.752 82.9335C101.888 82.9063 102.024 82.8792 102.159 82.8521C102.268 82.8249 102.404 82.7978 102.512 82.7706C102.648 82.7435 102.784 82.7163 102.892 82.6892C103.001 82.662 103.137 82.6349 103.245 82.6077C103.381 82.5806 103.517 82.5534 103.625 82.5263C103.734 82.4991 103.87 82.472 103.978 82.4448C104.114 82.4177 104.223 82.3905 104.358 82.3362C104.467 82.3091 104.603 82.2819 104.711 82.2276C104.847 82.2005 104.956 82.1462 105.091 82.119C105.2 82.0919 105.336 82.0376 105.444 82.0105C105.58 81.9833 105.689 81.929 105.824 81.9019C105.933 81.8747 106.069 81.8204 106.177 81.7933C106.313 81.739 106.422 81.7118 106.557 81.6575C106.666 81.6032 106.802 81.5761 106.91 81.5218C107.046 81.4675 107.155 81.4403 107.29 81.386C107.399 81.3317 107.535 81.3046 107.643 81.2503C107.779 81.196 107.888 81.1417 107.996 81.1146C108.105 81.0603 108.214 81.0331 108.349 80.9788C108.404 80.9517 108.458 80.9245 108.512 80.8974H112.802L120.647 100.879ZM122.494 53.8575C122.494 63.9567 116.521 73.1872 107.318 77.3138C104.006 78.8069 100.476 79.5671 96.8112 79.5671C96.1325 79.5671 95.4538 79.5399 94.775 79.4856C94.3678 79.4585 93.9606 79.4042 93.5805 79.3499C93.4719 79.3228 93.3633 79.3228 93.2547 79.2956C91.3 79.0241 89.4268 78.5354 87.5807 77.8296C87.4993 77.8024 87.4178 77.7753 87.3364 77.721C87.2006 77.6667 87.092 77.6124 86.9563 77.5581C86.7391 77.4767 86.5491 77.3681 86.3319 77.2866C85.2188 76.798 84.16 76.2278 83.1555 75.6034C76.1241 71.2054 71.6174 63.6581 71.183 55.2149C71.1559 54.7534 71.1559 54.2919 71.1559 53.8304C71.1559 53.5046 71.1559 53.206 71.183 52.8802C71.2645 50.6811 71.6174 48.4821 72.269 46.3917C74.1694 40.1204 78.3231 34.8536 84.0243 31.5686C86.4948 30.1569 89.1282 29.1524 91.9245 28.6095C92.3045 28.528 92.7118 28.4737 93.119 28.3923C93.4176 28.338 93.7162 28.3108 94.0149 28.2837C94.1235 28.2837 94.2049 28.2565 94.3135 28.2565C94.6393 28.2294 94.9922 28.2022 95.318 28.1751C95.3723 28.1751 95.4538 28.1751 95.508 28.1479C95.8338 28.1208 96.1325 28.1208 96.4582 28.1208C96.5397 28.1208 96.6483 28.1208 96.7297 28.1208C97.0827 28.1208 97.4084 28.1208 97.7614 28.1479C97.8157 28.1479 97.87 28.1479 97.9243 28.1479C98.25 28.1479 98.603 28.1751 98.9287 28.2022C98.983 28.2022 99.0645 28.2022 99.1188 28.2022C99.3631 28.2294 99.5803 28.2565 99.8246 28.2837C99.9061 28.2837 99.9875 28.3108 100.069 28.3108C100.15 28.3108 100.232 28.338 100.313 28.338C100.693 28.3923 101.101 28.4466 101.481 28.528C104.793 29.1253 107.915 30.347 110.738 32.1659C111.146 32.4374 111.553 32.7089 111.933 32.9804C118.503 37.8399 122.494 45.6315 122.494 53.8575ZM99.8246 24.5101C99.7703 24.5101 99.6889 24.5101 99.6346 24.4829C99.4174 24.4558 99.2002 24.4558 98.983 24.4286C98.8745 24.4286 98.7659 24.4015 98.6301 24.4015C98.3586 24.3743 98.1143 24.3743 97.8428 24.3743C97.7071 24.3743 97.5985 24.3743 97.4627 24.3743C97.2184 24.3743 96.9741 24.3743 96.7297 24.3743C96.594 24.3743 96.4854 24.3743 96.3496 24.3743C96.1325 24.3743 95.8881 24.3743 95.6709 24.4015C95.5623 24.4015 95.4537 24.4015 95.3452 24.4286C95.0465 24.4558 94.775 24.4558 94.4764 24.4829C94.395 24.4829 94.2864 24.5101 94.2049 24.5101C93.9606 24.5372 93.6891 24.5644 93.4448 24.5915C93.3633 24.5915 93.309 24.6187 93.2276 24.6187C92.9289 24.6458 92.6032 24.7001 92.3045 24.7544C92.2231 24.7544 92.1416 24.7815 92.0873 24.7815C91.7616 24.8358 91.4629 24.8901 91.1371 24.9444C88.3409 25.4874 85.6532 26.4376 83.1284 27.7407C82.7754 27.9308 82.4225 28.1208 82.0696 28.338C81.6623 28.5552 81.2823 28.7995 80.9022 29.0438C80.7664 29.1253 80.6579 29.2067 80.5221 29.2882C80.2778 29.4511 80.0334 29.614 79.7619 29.804C79.6262 29.9126 79.4633 30.0212 79.3276 30.1298C79.1104 30.2927 78.8932 30.4556 78.676 30.6185C78.5131 30.727 78.3774 30.8628 78.2145 30.9714C78.0245 31.1343 77.8073 31.2972 77.6172 31.4601C77.4543 31.5958 77.3186 31.7315 77.1557 31.8673C76.9657 32.0302 76.7756 32.1931 76.6127 32.356C76.477 32.4917 76.3141 32.6274 76.1784 32.7903C76.0155 32.9532 75.8254 33.1433 75.6625 33.3062C75.5268 33.4419 75.3911 33.6048 75.2282 33.7405C75.0653 33.9306 74.9024 34.0935 74.7395 34.2835C74.6037 34.4464 74.468 34.5821 74.3323 34.745C74.1694 34.9351 74.0336 35.1251 73.8707 35.3151C73.735 35.478 73.5993 35.6409 73.4907 35.8038C73.3549 35.9938 73.192 36.1839 73.0563 36.3739C72.9477 36.5368 72.812 36.6997 72.7034 36.8626C72.5676 37.0526 72.4319 37.2698 72.2961 37.4599C72.2147 37.5685 72.1332 37.6771 72.0789 37.7856C72.0518 37.8399 71.9975 37.8942 71.9704 37.9485C71.8346 38.1657 71.6989 38.3558 71.5903 38.5729C71.4817 38.7358 71.3731 38.9259 71.2916 39.0888C71.1559 39.306 71.0473 39.5231 70.9387 39.7403C70.8573 39.9032 70.7487 40.0933 70.6672 40.2561C70.5586 40.5005 70.4229 40.7177 70.3143 40.962C70.2328 41.1249 70.1514 41.2878 70.07 41.4778C69.9342 41.7493 69.8256 42.0208 69.717 42.2923C69.6627 42.428 69.5813 42.5909 69.527 42.7267C69.3641 43.1339 69.2012 43.5683 69.0383 43.9755H36.1073C36.0258 38.953 31.9536 34.8808 26.9311 34.7993V22.7454C28.4514 22.7183 29.9174 22.3382 31.2205 21.6052C34.1797 20.0034 36.0258 16.9356 36.0801 13.5692H90.6485C90.6756 14.9538 91.0014 16.3384 91.6258 17.5872C93.2004 20.7093 96.3225 22.664 99.7975 22.7454V24.5101H99.8246ZM15.7188 4.12158H111.037V28.0122C110.983 27.9851 110.928 27.9579 110.901 27.9308C110.657 27.795 110.385 27.6593 110.114 27.5235C110.06 27.4964 109.978 27.4421 109.924 27.4149C109.598 27.2521 109.299 27.1163 108.974 26.9534C108.892 26.9263 108.838 26.8991 108.756 26.8448C108.485 26.7362 108.214 26.6005 107.969 26.4919C107.888 26.4647 107.806 26.4376 107.725 26.3833C107.399 26.2476 107.073 26.139 106.747 26.0032C106.693 25.9761 106.612 25.9489 106.557 25.9489C106.286 25.8403 105.987 25.7589 105.716 25.6774C105.634 25.6503 105.553 25.6231 105.444 25.596C105.119 25.4874 104.766 25.406 104.44 25.2974C104.413 25.2974 104.358 25.2702 104.331 25.2702C104.087 25.2159 103.87 25.1616 103.625 25.1073V20.7907C103.625 19.7319 102.784 18.8903 101.725 18.8903H99.9875C97.8971 18.8903 95.9967 17.7229 95.0465 15.8497C94.6665 15.0896 94.4493 14.2479 94.4493 13.3792V11.6417C94.4493 10.5829 93.6077 9.74131 92.5489 9.74131H34.2069C33.1481 9.74131 32.3065 10.5829 32.3065 11.6417V13.3792C32.3065 15.3882 31.1934 17.2614 29.4016 18.2388C28.6143 18.6731 27.6912 18.8903 26.7682 18.8903H25.0307C23.9719 18.8903 23.1303 19.7319 23.1303 20.7907V36.6454C23.1303 37.7042 23.9719 38.5458 25.0307 38.5458H26.7682C29.8088 38.5458 32.2793 41.0163 32.2793 44.0569V45.7944C32.2793 46.8532 33.1209 47.6948 34.1797 47.6948H67.8981C67.8438 47.912 67.8167 48.1021 67.7624 48.3192C67.7352 48.455 67.708 48.6179 67.6809 48.7536C67.6537 48.9436 67.5995 49.1608 67.5723 49.3509C67.5452 49.5138 67.518 49.6495 67.518 49.8124C67.4909 50.0024 67.4637 50.1925 67.4366 50.4097C67.4094 50.5726 67.4094 50.7354 67.3823 50.8712C67.3551 51.0612 67.3551 51.2513 67.328 51.4413C67.328 51.6042 67.3008 51.7671 67.3008 51.93C67.3008 52.12 67.2737 52.3101 67.2737 52.5001C67.2737 52.663 67.2737 52.8259 67.2465 52.9888C67.2465 53.0974 67.2465 53.2331 67.2465 53.3417H43.926H15.7188V4.12158ZM45.2563 57.2239H67.4637C67.4637 57.2782 67.4909 57.3325 67.4909 57.3868C67.4909 57.4683 67.518 57.5497 67.518 57.6583C67.5452 57.9026 67.5723 58.1198 67.6266 58.3642C67.6266 58.4456 67.6537 58.5271 67.6537 58.6085C67.708 58.9071 67.7623 59.2058 67.8166 59.5044C67.8166 59.5587 67.8438 59.5858 67.8438 59.6401C67.8981 59.8845 67.9524 60.156 68.0067 60.4003C68.0338 60.4817 68.0338 60.5632 68.061 60.6718C68.1153 60.9161 68.1696 61.1333 68.2239 61.3776C68.251 61.4319 68.251 61.5134 68.2782 61.5677C68.3596 61.8663 68.4411 62.1378 68.5225 62.4364C68.5497 62.5179 68.5768 62.5722 68.5768 62.6536C68.6582 62.8708 68.7125 63.1151 68.794 63.3323C68.8211 63.4138 68.8483 63.4952 68.8754 63.5767C68.9569 63.821 69.0655 64.0925 69.1469 64.3368C69.1469 64.364 69.1741 64.3911 69.1741 64.4183C69.2827 64.6897 69.3913 64.9612 69.4998 65.2599C69.527 65.3413 69.5541 65.4228 69.6084 65.5042C69.6899 65.7214 69.7985 65.9114 69.8799 66.1286C69.9071 66.2101 69.9614 66.2915 69.9885 66.3729C70.1243 66.6444 70.2328 66.9159 70.3686 67.1603C70.3957 67.1874 70.3957 67.2417 70.4229 67.2688C70.5315 67.5132 70.6672 67.7304 70.7758 67.9476C70.8301 68.029 70.8573 68.1104 70.9116 68.1919C71.0201 68.3819 71.1287 68.5991 71.2373 68.7892C71.2645 68.8435 71.3188 68.9249 71.3459 68.9792C71.4817 69.2235 71.6446 69.4679 71.8075 69.7394C71.8346 69.7936 71.8889 69.848 71.9161 69.9294C72.0518 70.1194 72.1604 70.3095 72.2961 70.4995C72.3504 70.581 72.4047 70.6624 72.459 70.7439C72.5948 70.9339 72.7305 71.1511 72.8934 71.3411C72.9205 71.3954 72.9477 71.4226 72.9748 71.4769C73.1377 71.7212 73.3278 71.9384 73.5178 72.1827C73.5721 72.2642 73.6264 72.3185 73.6807 72.3728C73.8164 72.5357 73.9522 72.7257 74.0879 72.8886C74.1422 72.97 74.1965 73.0243 74.2508 73.1058C74.4409 73.323 74.6309 73.5401 74.8209 73.7573C74.8481 73.7845 74.8752 73.8116 74.8752 73.8116C75.0653 74.0017 75.2282 74.1917 75.4182 74.4089C75.4725 74.4632 75.5539 74.5446 75.6082 74.5989C75.7711 74.7618 75.934 74.9247 76.0698 75.0605C76.1241 75.1148 76.1784 75.1691 76.2327 75.2233C76.4498 75.4134 76.667 75.6306 76.8842 75.8206C76.9385 75.8749 76.9928 75.9021 77.0471 75.9564C77.2371 76.1192 77.4 76.2821 77.5901 76.4179C77.6715 76.4722 77.7258 76.5265 77.8073 76.6079C77.9973 76.7708 78.1873 76.9065 78.3774 77.0694C78.4317 77.0966 78.4588 77.1509 78.5131 77.178L78.5403 77.2052H75.8254H49.9801H37.2747L45.2563 57.2239ZM13.2754 80.9517H34.587H48.8127L56.6858 100.879H5.40238L13.2754 80.9517Z" fill="white"/>
<path d="M39.7723 22.3381C36.2159 22.3381 33.311 25.243 33.311 28.7995C33.311 31.2157 34.6412 33.4147 36.786 34.5278C37.709 34.9893 38.7135 35.2608 39.7452 35.2608C42.0256 35.2608 44.116 34.0663 45.2834 32.1116C45.3106 32.0844 45.3106 32.0573 45.3377 32.0301C45.9079 31.0528 46.2065 29.9397 46.2065 28.7995C46.2065 25.2159 43.3287 22.3381 39.7723 22.3381ZM42.1071 30.0483C42.1071 30.0754 42.0799 30.1026 42.0799 30.1026C41.6184 30.917 40.7225 31.4329 39.7994 31.4329C39.3651 31.4329 38.9578 31.3243 38.5778 31.1342C37.6819 30.6727 37.1389 29.7768 37.1389 28.7723C37.1389 27.3063 38.3334 26.1118 39.7994 26.1118C41.2655 26.1118 42.46 27.3063 42.46 28.7723C42.4057 29.2338 42.2971 29.6682 42.1071 30.0483Z" fill="white"/>
<path d="M64.7217 26.8447V21.5779C65.6448 21.7951 66.595 22.2023 67.5451 22.7725C67.8166 22.9354 68.0881 23.0168 68.3596 23.0168C69.2012 23.0168 69.9071 22.3652 69.9071 21.4965C69.9071 20.8449 69.527 20.4377 69.0926 20.1934C67.8438 19.4061 66.4592 18.8902 64.8575 18.7002V18.1029C64.8575 17.4514 64.3416 16.9355 63.6901 16.9355C63.0385 16.9355 62.4955 17.4514 62.4955 18.1029V18.673C59.0748 18.9445 56.7401 20.9807 56.7401 23.9127C56.7401 25.1615 57.0387 26.166 57.6903 26.9805C58.6133 28.175 60.2422 28.9352 62.6041 29.5596V34.9621C61.111 34.6906 59.835 34.0662 58.559 33.116C58.3147 32.926 57.9889 32.8174 57.6631 32.8174C56.8215 32.8174 56.17 33.4689 56.17 34.3105C56.17 34.8807 56.4414 35.315 56.903 35.6137C58.559 36.7811 60.4594 37.5412 62.5227 37.7584V39.4687C62.5227 40.1203 63.0657 40.6361 63.7172 40.6361C64.3688 40.6361 64.8846 40.1203 64.8846 39.4687V37.8127C68.3596 37.4869 70.7215 35.4779 70.7215 32.4645C70.6672 29.5596 68.8754 27.8764 64.7217 26.8447ZM62.5498 26.2746C62.1155 26.1389 61.7625 26.0031 61.4639 25.8402C60.2694 25.2701 59.9436 24.6457 59.9436 23.7227C59.9436 22.5281 60.8123 21.5779 62.577 21.415V26.2746H62.5498ZM64.7217 35.0436V30.0482C66.8393 30.6998 67.4366 31.4328 67.4366 32.6545C67.4366 33.9848 66.4864 34.8535 64.7217 35.0436Z" fill="white"/>
<path d="M116.331 51.5227C116.087 49.4865 115.544 47.5047 114.675 45.6314C114.512 45.3057 114.349 44.9799 114.186 44.6541C114.132 44.5455 114.078 44.4641 114.023 44.3555C113.915 44.1383 113.779 43.9211 113.67 43.7311C113.535 43.5139 113.399 43.2967 113.263 43.0795C113.209 42.998 113.155 42.8895 113.1 42.808C110.494 38.9529 106.585 36.1295 102.024 34.8807C100.34 34.4191 98.603 34.1748 96.8112 34.1748C89.3454 34.1748 82.5854 38.3285 79.219 45.007C77.8344 47.7762 77.1286 50.7354 77.1286 53.8574C77.1286 54.4275 77.1557 54.9705 77.21 55.4863C77.7258 61.7033 81.2008 67.3502 86.5219 70.6352C89.6168 72.5355 93.1733 73.54 96.8112 73.54C107.671 73.54 116.494 64.7168 116.494 53.8574C116.494 53.1516 116.467 52.4729 116.385 51.7941C116.358 51.7127 116.331 51.6312 116.331 51.5227ZM96.784 69.7393C93.852 69.7393 90.9743 68.9248 88.4766 67.4045C84.1872 64.7711 81.3637 60.2102 80.9565 55.1605C80.9293 54.7533 80.9022 54.3189 80.9022 53.8574C80.9022 51.3598 81.4723 48.9436 82.5854 46.7174C85.3002 41.3148 90.7299 37.9756 96.784 37.9756C98.2229 37.9756 99.6346 38.1656 100.992 38.5457C101.562 38.7086 102.105 38.8986 102.648 39.0887C103.055 39.2516 103.435 39.4416 103.815 39.6316C106.802 41.0977 109.245 43.4596 110.82 46.4459C110.956 46.7174 111.091 46.9617 111.2 47.2332C112.15 49.3236 112.639 51.5498 112.639 53.8846C112.666 62.6264 105.553 69.7393 96.784 69.7393Z" fill="white"/>
<path d="M98.2772 51.7127V45.8758C99.3088 46.1202 100.34 46.5817 101.399 47.2061C101.698 47.3961 101.997 47.4776 102.322 47.4776C103.272 47.4776 104.033 46.7446 104.033 45.7944C104.033 45.0614 103.598 44.627 103.11 44.3284C101.698 43.4596 100.205 42.8624 98.4129 42.6452V41.9665C98.4129 41.2334 97.8428 40.6633 97.1098 40.6633C96.3768 40.6633 95.7795 41.2334 95.7795 41.9665V42.5909C94.585 42.6995 93.4991 42.971 92.6032 43.4325C91.4629 44.0026 90.5942 44.817 90.0512 45.8215C89.644 46.5817 89.4268 47.4504 89.4268 48.4006C89.4268 49.7852 89.7797 50.8983 90.4584 51.7942C91.4901 53.0973 93.2819 53.9661 95.9153 54.6719V60.6446C94.2321 60.3459 92.8475 59.6401 91.4086 58.6084C91.1371 58.3913 90.7571 58.2827 90.4041 58.2827C89.4539 58.2827 88.7481 59.0157 88.7481 59.9387C88.7481 60.5631 89.0467 61.0518 89.5625 61.4047C91.4086 62.7079 93.4991 63.5223 95.7795 63.7667V65.6399C95.7795 66.3729 96.3768 66.943 97.1098 66.943C97.8428 66.943 98.4129 66.3729 98.4129 65.6399V63.821C102.268 63.468 104.874 61.2418 104.874 57.9026C104.874 56.8981 104.684 56.0294 104.304 55.2692C103.408 53.6403 101.481 52.5001 98.2772 51.7127ZM95.8881 51.0612C95.4266 50.8983 95.0194 50.7626 94.6664 50.5997C93.3362 49.9752 92.9561 49.2694 92.9561 48.2377C92.9561 46.9075 93.9334 45.8758 95.861 45.6858V51.0612H95.8881ZM98.2772 60.8075V55.2692C98.3315 55.2963 98.3858 55.2963 98.4129 55.3235C100.639 56.0293 101.264 56.8438 101.264 58.1741C101.291 59.6401 100.232 60.5903 98.2772 60.8075Z" fill="white"/>
</svg>
