<svg width="137" height="114" viewBox="0 0 137 114" fill="none" xmlns="http://www.w3.org/2000/svg">
<path d="M89.2338 82.3475H88.3269C82.7623 82.2091 74.6459 76.3678 73.739 75.6915L71.3409 73.9083L73.37 71.8177C73.8773 71.3105 78.4889 66.9295 87.6813 68.0209C98.1341 69.266 98.2571 79.3346 98.2571 79.4268V81.5943L96.2895 81.8863C93.9482 82.1731 91.5925 82.3271 89.2338 82.3475ZM76.0601 73.5855C79.0423 75.6915 84.8375 79.1809 88.3576 79.2731C90.6071 79.294 92.8556 79.1759 95.0905 78.9196C94.9377 76.8966 94.0638 74.9958 92.6279 73.5627C91.192 72.1296 89.2894 71.2595 87.2662 71.1106C80.9176 70.342 77.3052 72.6017 76.0601 73.5855Z" fill="url(#paint0_linear_20_129)"/>
<path d="M98.2879 80.8715L96.9044 79.5495C95.1893 77.7512 94.2553 75.3473 94.3066 72.8627C94.4295 69.5885 96.3664 66.4219 100.04 63.4705C109.171 56.1228 117.18 55.7846 118.056 55.7077L122.037 55.6155L120.5 59.0742C120.285 59.5199 115.381 70.1265 109.279 74.3692C106.348 76.3592 103.315 78.196 100.194 79.8723L98.2879 80.8715ZM117.118 58.8589C111.524 59.7766 106.284 62.1998 101.962 65.8685C99.0411 68.2204 97.5039 70.5877 97.3502 72.9089C97.2965 74.4336 97.8115 75.9238 98.7952 77.09C99.5945 76.6596 103.883 74.3077 107.434 71.8482C111.831 68.8046 115.735 61.6105 117.118 58.8589Z" fill="url(#paint1_linear_20_129)"/>
<path d="M131.645 113.875H67.0829V61.9488C67.0829 61.5411 67.2448 61.1501 67.5331 60.8619C67.8214 60.5736 68.2124 60.4116 68.6201 60.4116C69.0278 60.4116 69.4188 60.5736 69.707 60.8619C69.9953 61.1501 70.1573 61.5411 70.1573 61.9488V110.801H128.57V61.9488C128.57 61.5411 128.732 61.1501 129.021 60.8619C129.309 60.5736 129.7 60.4116 130.108 60.4116C130.515 60.4116 130.906 60.5736 131.195 60.8619C131.483 61.1501 131.645 61.5411 131.645 61.9488V113.875Z" fill="url(#paint2_linear_20_129)"/>
<path d="M64.8079 67.0831C64.4498 67.0851 64.0947 67.0173 63.7626 66.8833C63.2074 66.6623 62.7322 66.278 62.4001 65.7812C62.068 65.2844 61.8945 64.6985 61.9026 64.1009V58.0905L99.3639 17.8623L136.871 56.292V63.0864C136.875 63.6258 136.718 64.154 136.419 64.6032C136.121 65.0524 135.695 65.4021 135.196 65.6074C134.716 65.8044 134.189 65.8526 133.682 65.7456C133.174 65.6387 132.711 65.3817 132.352 65.0079L99.3639 31.2512L66.8985 66.2223C66.6268 66.5003 66.3013 66.7201 65.9419 66.8681C65.5824 67.0161 65.1966 67.0893 64.8079 67.0831ZM64.977 59.3049V63.732L99.3639 26.8087L133.797 62.0565V57.5218L99.3639 22.3201L64.977 59.3049Z" fill="url(#paint3_linear_20_129)"/>
<path d="M72.5553 50.2045C72.1476 50.2045 71.7566 50.0425 71.4683 49.7542C71.18 49.466 71.0181 49.075 71.0181 48.6673V20.3062H88.1885V33.5106C88.1885 33.9183 88.0265 34.3093 87.7382 34.5976C87.45 34.8858 87.059 35.0478 86.6513 35.0478C86.2436 35.0478 85.8526 34.8858 85.5643 34.5976C85.276 34.3093 85.1141 33.9183 85.1141 33.5106V23.3805H74.0924V48.6673C74.0924 49.075 73.9305 49.466 73.6422 49.7542C73.3539 50.0425 72.9629 50.2045 72.5553 50.2045Z" fill="url(#paint4_linear_20_129)"/>
<path d="M97.012 79.0575C96.5509 69.4655 116.534 57.2448 118.809 55.8921L120.347 58.5207C114.582 61.964 99.7175 72.3554 100.04 78.9192L97.012 79.0575Z" fill="url(#paint5_linear_20_129)"/>
<path d="M95.4133 81.0558C92.2621 75.8755 78.6887 75.1376 73.7236 75.276L73.6313 72.2016C75.6297 72.2016 93.3996 71.8327 98.0419 79.4571L95.4133 81.0558Z" fill="url(#paint6_linear_20_129)"/>
<path d="M98.8259 98.5029H98.6568C98.2538 98.4566 97.8855 98.2528 97.6322 97.9361C97.3788 97.6194 97.2609 97.2153 97.3041 96.812C98.1495 89.1261 95.1366 78.7962 95.1059 78.6886C95.0468 78.4948 95.0265 78.2912 95.0463 78.0896C95.0661 77.888 95.1256 77.6923 95.2213 77.5137C95.317 77.3351 95.4471 77.1772 95.604 77.0491C95.761 76.921 95.9417 76.8251 96.1358 76.7671C96.3306 76.7083 96.5351 76.6887 96.7375 76.7095C96.9399 76.7303 97.1362 76.7911 97.3149 76.8883C97.4937 76.9855 97.6513 77.1173 97.7788 77.2759C97.9062 77.4345 98.0009 77.6169 98.0573 77.8124C98.1803 78.2582 101.285 88.8033 100.363 97.1502C100.318 97.5252 100.136 97.8703 99.8525 98.1198C99.569 98.3693 99.2035 98.5057 98.8259 98.5029Z" fill="url(#paint7_linear_20_129)"/>
<path d="M105.205 108.695H93.3227L88.6035 95.4287H108.956L105.205 108.695ZM95.4748 105.62H102.884L104.898 98.5031H92.923L95.4748 105.62Z" fill="url(#paint8_linear_20_129)"/>
<path d="M87.9579 23.3806H71.3102C70.189 23.3806 69.1138 22.9353 68.321 22.1425C67.5283 21.3497 67.0829 20.2745 67.0829 19.1534V18.8459C67.0829 17.7248 67.5283 16.6496 68.321 15.8568C69.1138 15.064 70.189 14.6187 71.3102 14.6187H87.9579C89.0791 14.6187 90.1543 15.064 90.947 15.8568C91.7398 16.6496 92.1852 17.7248 92.1852 18.8459V19.1534C92.1852 20.2745 91.7398 21.3497 90.947 22.1425C90.1543 22.9353 89.0791 23.3806 87.9579 23.3806ZM71.3102 17.693C71.0056 17.697 70.7147 17.8198 70.4993 18.0351C70.284 18.2505 70.1612 18.5414 70.1573 18.8459V19.1534C70.1573 19.4591 70.2787 19.7524 70.4949 19.9686C70.7111 20.1848 71.0044 20.3062 71.3102 20.3062H87.9579C88.1099 20.3083 88.2607 20.2799 88.4015 20.2227C88.5423 20.1655 88.6703 20.0807 88.7777 19.9732C88.8852 19.8657 88.97 19.7378 89.0273 19.597C89.0845 19.4562 89.1129 19.3053 89.1108 19.1534V18.8459C89.1108 18.5402 88.9893 18.2469 88.7731 18.0307C88.5569 17.8145 88.2637 17.693 87.9579 17.693H71.3102Z" fill="url(#paint9_linear_20_129)"/>
<path d="M56.8145 71.5256L4.98047 71.0183L13.1122 34.6177L20.1218 34.6945C20.5295 34.6945 20.9205 34.8565 21.2087 35.1448C21.497 35.433 21.659 35.824 21.659 36.2317C21.659 36.6394 21.497 37.0304 21.2087 37.3187C20.9205 37.607 20.5295 37.7689 20.1218 37.7689H15.6024L8.82344 67.9747L53.033 68.4205L46.8842 38.0302H39.9976C39.8196 38.1411 39.6208 38.2143 39.4135 38.2454C39.0099 38.3025 38.6002 38.1968 38.2744 37.9518C37.9487 37.7068 37.7336 37.3424 37.6765 36.9388L37.3998 34.9559H39.4135L49.3899 35.0635L56.8145 71.5256Z" fill="url(#paint10_linear_20_129)"/>
<path d="M52.0184 80.3794H9.79185L5.77979 72.509H56.0459L52.0184 80.3794ZM11.7441 77.3051H50.1738L51.05 75.5834H10.8064L11.7441 77.3051Z" fill="url(#paint11_linear_20_129)"/>
<path d="M33.6645 104.652C33.2568 104.652 32.8658 104.49 32.5775 104.202C32.2893 103.913 32.1273 103.522 32.1273 103.115V80.3796H30.5901V103.115C30.5901 103.522 30.4282 103.913 30.1399 104.202C29.8516 104.49 29.4606 104.652 29.0529 104.652C28.6452 104.652 28.2543 104.49 27.966 104.202C27.6777 103.913 27.5157 103.522 27.5157 103.115V77.3052H35.2017V103.115C35.2017 103.522 35.0397 103.913 34.7515 104.202C34.4632 104.49 34.0722 104.652 33.6645 104.652Z" fill="url(#paint12_linear_20_129)"/>
<path d="M62.6712 113.137H0V106.512L28.7454 101.578C29.1531 101.51 29.5708 101.608 29.9067 101.849C30.2425 102.089 30.469 102.454 30.5363 102.861C30.6035 103.269 30.5061 103.687 30.2654 104.022C30.0247 104.358 29.6604 104.585 29.2527 104.652L3.12049 109.11V110.063H59.5968V109.11L33.4646 104.652C33.0569 104.585 32.6926 104.358 32.4519 104.022C32.2112 103.687 32.1138 103.269 32.181 102.861C32.2483 102.454 32.4748 102.089 32.8106 101.849C33.1465 101.608 33.5642 101.51 33.9719 101.578L62.7327 106.481L62.6712 113.137Z" fill="url(#paint13_linear_20_129)"/>
<path d="M68.6201 95.7361H42.1036V78.827C42.1036 78.4193 42.2656 78.0283 42.5539 77.74C42.8421 77.4517 43.2331 77.2898 43.6408 77.2898C44.0485 77.2898 44.4395 77.4517 44.7278 77.74C45.0161 78.0283 45.178 78.4193 45.178 78.827V92.6617H68.6201C69.0278 92.6617 69.4188 92.8236 69.7071 93.1119C69.9954 93.4002 70.1573 93.7912 70.1573 94.1989C70.1573 94.6066 69.9954 94.9976 69.7071 95.2858C69.4188 95.5741 69.0278 95.7361 68.6201 95.7361Z" fill="url(#paint14_linear_20_129)"/>
<path d="M49.7588 46.2387H12.4513C12.0436 46.2387 11.6526 46.0767 11.3643 45.7885C11.076 45.5002 10.9141 45.1092 10.9141 44.7015C10.9141 44.2938 11.076 43.9028 11.3643 43.6145C11.6526 43.3263 12.0436 43.1643 12.4513 43.1643H49.7588C50.1665 43.1643 50.5575 43.3263 50.8458 43.6145C51.1341 43.9028 51.296 44.2938 51.296 44.7015C51.296 45.1092 51.1341 45.5002 50.8458 45.7885C50.5575 46.0767 50.1665 46.2387 49.7588 46.2387Z" fill="url(#paint15_linear_20_129)"/>
<path d="M51.6035 54.6012H10.5759C10.1682 54.6012 9.77721 54.4393 9.48893 54.151C9.20065 53.8627 9.0387 53.4717 9.0387 53.064C9.0387 52.6564 9.20065 52.2654 9.48893 51.9771C9.77721 51.6888 10.1682 51.5269 10.5759 51.5269H51.6035C52.0111 51.5269 52.4021 51.6888 52.6904 51.9771C52.9787 52.2654 53.1406 52.6564 53.1406 53.064C53.1406 53.4717 52.9787 53.8627 52.6904 54.151C52.4021 54.4393 52.0111 54.6012 51.6035 54.6012Z" fill="url(#paint16_linear_20_129)"/>
<path d="M53.0791 62.5175H8.80806C8.40038 62.5175 8.00939 62.3555 7.72111 62.0673C7.43283 61.779 7.27087 61.388 7.27087 60.9803C7.27087 60.5726 7.43283 60.1816 7.72111 59.8933C8.00939 59.6051 8.40038 59.4431 8.80806 59.4431H53.0791C53.4868 59.4431 53.8778 59.6051 54.1661 59.8933C54.4543 60.1816 54.6163 60.5726 54.6163 60.9803C54.6163 61.388 54.4543 61.779 54.1661 62.0673C53.8778 62.3555 53.4868 62.5175 53.0791 62.5175Z" fill="url(#paint17_linear_20_129)"/>
<path d="M30.9129 71.1258C30.5052 71.1258 30.1142 70.9639 29.826 70.6756C29.5377 70.3873 29.3757 69.9963 29.3757 69.5886V36.4161C29.3757 36.0084 29.5377 35.6174 29.826 35.3291C30.1142 35.0409 30.5052 34.8789 30.9129 34.8789C31.3206 34.8789 31.7116 35.0409 31.9999 35.3291C32.2882 35.6174 32.4501 36.0084 32.4501 36.4161V69.5886C32.4501 69.9963 32.2882 70.3873 31.9999 70.6756C31.7116 70.9639 31.3206 71.1258 30.9129 71.1258Z" fill="url(#paint18_linear_20_129)"/>
<path d="M18.9074 70.7106H18.7229C18.5219 70.6877 18.3274 70.6254 18.1506 70.5271C17.9738 70.4289 17.818 70.2968 17.6924 70.1383C17.5667 69.9797 17.4735 69.798 17.4183 69.6034C17.363 69.4088 17.3466 69.2052 17.3702 69.0043L21.1671 36.4467C21.217 36.0435 21.4246 35.6766 21.7443 35.426C22.064 35.1754 22.4699 35.0615 22.8733 35.1093C23.2763 35.1557 23.6446 35.3594 23.898 35.6761C24.1513 35.9929 24.2693 36.3969 24.2261 36.8002L20.4292 69.2964C20.3984 69.6798 20.2251 70.0377 19.9434 70.2995C19.6616 70.5613 19.292 70.708 18.9074 70.7106Z" fill="url(#paint19_linear_20_129)"/>
<path d="M42.7493 71.387C42.3693 71.3893 42.0019 71.2508 41.718 70.9981C41.4341 70.7455 41.2539 70.3966 41.2121 70.0189L37.5997 36.6312C37.5714 36.4293 37.5832 36.2238 37.6344 36.0265C37.6855 35.8292 37.775 35.6439 37.8978 35.4812C38.0205 35.3184 38.1741 35.1815 38.3498 35.0781C38.5255 34.9748 38.7198 34.907 38.9217 34.8788C39.1236 34.8505 39.329 34.8623 39.5263 34.9134C39.7236 34.9646 39.909 35.0541 40.0717 35.1768C40.2344 35.2996 40.3714 35.4532 40.4747 35.6289C40.5781 35.8046 40.6458 35.9989 40.6741 36.2007V36.4313L44.2711 69.6807C44.3143 70.084 44.1964 70.4881 43.943 70.8048C43.6896 71.1215 43.3213 71.3253 42.9184 71.3716L42.7493 71.387Z" fill="url(#paint20_linear_20_129)"/>
<path d="M38.0455 39.9207L37.7842 37.9377L19.4301 37.7686L18.9843 37.3228C16.811 35.1704 15.3293 32.4185 14.7287 29.4193C14.1281 26.42 14.4359 23.3098 15.6128 20.4864C16.7897 17.6631 18.7822 15.2551 21.3353 13.5705C23.8884 11.8858 26.886 11.0012 29.9447 11.0297C33.0034 11.0582 35.984 11.9986 38.5052 13.7306C41.0264 15.4625 42.9736 17.9073 44.0977 20.7521C45.2217 23.5969 45.4715 26.7123 44.8151 29.6998C44.1586 32.6874 42.6258 35.4111 40.4128 37.5227L38.0455 39.9207ZM20.7675 34.6942L38.7526 34.8787C40.4046 33.1435 41.5137 30.9637 41.9438 28.6068C42.3739 26.25 42.1062 23.8188 41.1735 21.612C40.2409 19.4052 38.684 17.5189 36.6941 16.1848C34.7041 14.8507 32.3678 14.1269 29.9722 14.1023C27.5765 14.0777 25.2259 14.7535 23.209 16.0465C21.1921 17.3395 19.5968 19.1935 18.6192 21.3807C17.6415 23.5679 17.3239 25.993 17.7056 28.3582C18.0873 30.7234 19.1515 32.9256 20.7675 34.6942Z" fill="url(#paint21_linear_20_129)"/>
<path d="M29.8523 8.07024C29.4446 8.07024 29.0536 7.90829 28.7653 7.62001C28.477 7.33173 28.3151 6.94074 28.3151 6.53305V1.53719C28.3151 1.1295 28.477 0.73851 28.7653 0.450231C29.0536 0.161952 29.4446 0 29.8523 0C30.2599 0 30.6509 0.161952 30.9392 0.450231C31.2275 0.73851 31.3894 1.1295 31.3894 1.53719V6.53305C31.3894 6.94074 31.2275 7.33173 30.9392 7.62001C30.6509 7.90829 30.2599 8.07024 29.8523 8.07024Z" fill="url(#paint22_linear_20_129)"/>
<path d="M17.278 13.0663C17.0747 13.0655 16.8735 13.0243 16.6861 12.9451C16.4988 12.866 16.329 12.7504 16.1866 12.6052L12.6511 9.06964C12.3648 8.78163 12.2041 8.39203 12.2041 7.98592C12.2041 7.57982 12.3648 7.19022 12.6511 6.90221C12.794 6.75813 12.964 6.64377 13.1513 6.56573C13.3387 6.48769 13.5396 6.44751 13.7425 6.44751C13.9454 6.44751 14.1464 6.48769 14.3337 6.56573C14.521 6.64377 14.691 6.75813 14.8339 6.90221L18.3694 10.4377C18.5862 10.6527 18.7341 10.9274 18.7941 11.2268C18.8542 11.5262 18.8237 11.8366 18.7067 12.1186C18.5896 12.4006 18.3912 12.6413 18.1367 12.8101C17.8823 12.9789 17.5834 13.0681 17.278 13.0663Z" fill="url(#paint23_linear_20_129)"/>
<path d="M42.2573 13.4197C41.854 13.418 41.4676 13.2579 41.1813 12.974C41.0372 12.8311 40.9228 12.661 40.8448 12.4737C40.7667 12.2864 40.7266 12.0855 40.7266 11.8826C40.7266 11.6796 40.7667 11.4787 40.8448 11.2914C40.9228 11.1041 41.0372 10.934 41.1813 10.7911L44.7014 7.27098C44.8437 7.12766 45.0129 7.01377 45.1992 6.93581C45.3855 6.85786 45.5854 6.81737 45.7874 6.81666C45.9894 6.81595 46.1895 6.85502 46.3764 6.93166C46.5633 7.00829 46.7332 7.12098 46.8765 7.2633C47.0199 7.40562 47.1338 7.57477 47.2117 7.7611C47.2897 7.94743 47.3302 8.14729 47.3309 8.34927C47.3316 8.55125 47.2925 8.75139 47.2159 8.93827C47.1392 9.12514 47.0265 9.29509 46.8842 9.43842L43.3487 12.974C43.2051 13.1164 43.0347 13.2291 42.8474 13.3056C42.6601 13.3821 42.4596 13.4209 42.2573 13.4197Z" fill="url(#paint24_linear_20_129)"/>
<path d="M10.3915 25.4711H5.39559C4.9879 25.4711 4.59691 25.3091 4.30863 25.0209C4.02035 24.7326 3.8584 24.3416 3.8584 23.9339C3.8584 23.5262 4.02035 23.1352 4.30863 22.847C4.59691 22.5587 4.9879 22.3967 5.39559 22.3967H10.3915C10.7991 22.3967 11.1901 22.5587 11.4784 22.847C11.7667 23.1352 11.9286 23.5262 11.9286 23.9339C11.9286 24.3416 11.7667 24.7326 11.4784 25.0209C11.1901 25.3091 10.7991 25.4711 10.3915 25.4711Z" fill="url(#paint25_linear_20_129)"/>
<path d="M53.7862 25.9941H48.7904C48.3827 25.9941 47.9917 25.8321 47.7034 25.5438C47.4151 25.2555 47.2532 24.8646 47.2532 24.4569C47.2532 24.0492 47.4151 23.6582 47.7034 23.3699C47.9917 23.0816 48.3827 22.9197 48.7904 22.9197H53.7862C54.1939 22.9197 54.5849 23.0816 54.8732 23.3699C55.1615 23.6582 55.3234 24.0492 55.3234 24.4569C55.3234 24.8646 55.1615 25.2555 54.8732 25.5438C54.5849 25.8321 54.1939 25.9941 53.7862 25.9941Z" fill="url(#paint26_linear_20_129)"/>
<defs>
<linearGradient id="paint0_linear_20_129" x1="75.3525" y1="61.805" x2="96.1552" y2="70.0351" gradientUnits="userSpaceOnUse">
<stop stop-color="#27419B"/>
<stop offset="1" stop-color="#21B4EE"/>
</linearGradient>
<linearGradient id="paint1_linear_20_129" x1="98.4378" y1="45.0921" x2="121.939" y2="50.5924" gradientUnits="userSpaceOnUse">
<stop stop-color="#27419B"/>
<stop offset="1" stop-color="#21B4EE"/>
</linearGradient>
<linearGradient id="paint2_linear_20_129" x1="76.7051" y1="38.1352" x2="130.828" y2="52.0654" gradientUnits="userSpaceOnUse">
<stop stop-color="#27419B"/>
<stop offset="1" stop-color="#21B4EE"/>
</linearGradient>
<linearGradient id="paint3_linear_20_129" x1="73.0756" y1="-2.64651" x2="133.698" y2="17.0331" gradientUnits="userSpaceOnUse">
<stop stop-color="#27419B"/>
<stop offset="1" stop-color="#21B4EE"/>
</linearGradient>
<linearGradient id="paint4_linear_20_129" x1="73.5771" y1="7.84851" x2="88.6982" y2="9.69937" gradientUnits="userSpaceOnUse">
<stop stop-color="#27419B"/>
<stop offset="1" stop-color="#21B4EE"/>
</linearGradient>
<linearGradient id="paint5_linear_20_129" x1="100.483" y1="46.2398" x2="120.428" y2="50.5232" gradientUnits="userSpaceOnUse">
<stop stop-color="#27419B"/>
<stop offset="1" stop-color="#21B4EE"/>
</linearGradient>
<linearGradient id="paint6_linear_20_129" x1="77.2695" y1="68.5083" x2="93.4913" y2="78.0372" gradientUnits="userSpaceOnUse">
<stop stop-color="#27419B"/>
<stop offset="1" stop-color="#21B4EE"/>
</linearGradient>
<linearGradient id="paint7_linear_20_129" x1="95.8579" y1="67.6174" x2="100.755" y2="67.8805" gradientUnits="userSpaceOnUse">
<stop stop-color="#27419B"/>
<stop offset="1" stop-color="#21B4EE"/>
</linearGradient>
<linearGradient id="paint8_linear_20_129" x1="91.6368" y1="89.9012" x2="108.071" y2="95.2752" gradientUnits="userSpaceOnUse">
<stop stop-color="#27419B"/>
<stop offset="1" stop-color="#21B4EE"/>
</linearGradient>
<linearGradient id="paint9_linear_20_129" x1="70.8241" y1="10.9678" x2="87.1678" y2="20.9475" gradientUnits="userSpaceOnUse">
<stop stop-color="#27419B"/>
<stop offset="1" stop-color="#21B4EE"/>
</linearGradient>
<linearGradient id="paint10_linear_20_129" x1="12.7057" y1="19.2394" x2="55.2273" y2="31.9674" gradientUnits="userSpaceOnUse">
<stop stop-color="#27419B"/>
<stop offset="1" stop-color="#21B4EE"/>
</linearGradient>
<linearGradient id="paint11_linear_20_129" x1="13.2714" y1="69.2297" x2="29.0199" y2="90.6671" gradientUnits="userSpaceOnUse">
<stop stop-color="#27419B"/>
<stop offset="1" stop-color="#21B4EE"/>
</linearGradient>
<linearGradient id="paint12_linear_20_129" x1="28.6612" y1="65.9108" x2="35.5067" y2="66.3208" gradientUnits="userSpaceOnUse">
<stop stop-color="#27419B"/>
<stop offset="1" stop-color="#21B4EE"/>
</linearGradient>
<linearGradient id="paint13_linear_20_129" x1="9.34958" y1="96.7317" x2="33.3837" y2="124.481" gradientUnits="userSpaceOnUse">
<stop stop-color="#27419B"/>
<stop offset="1" stop-color="#21B4EE"/>
</linearGradient>
<linearGradient id="paint14_linear_20_129" x1="46.2847" y1="69.6038" x2="68.9761" y2="76.9591" gradientUnits="userSpaceOnUse">
<stop stop-color="#27419B"/>
<stop offset="1" stop-color="#21B4EE"/>
</linearGradient>
<linearGradient id="paint15_linear_20_129" x1="16.9325" y1="41.8833" x2="21.0169" y2="53.3176" gradientUnits="userSpaceOnUse">
<stop stop-color="#27419B"/>
<stop offset="1" stop-color="#21B4EE"/>
</linearGradient>
<linearGradient id="paint16_linear_20_129" x1="15.6116" y1="50.2459" x2="19.4211" y2="61.8931" gradientUnits="userSpaceOnUse">
<stop stop-color="#27419B"/>
<stop offset="1" stop-color="#21B4EE"/>
</linearGradient>
<linearGradient id="paint17_linear_20_129" x1="14.3272" y1="58.1621" x2="17.9216" y2="69.9602" gradientUnits="userSpaceOnUse">
<stop stop-color="#27419B"/>
<stop offset="1" stop-color="#21B4EE"/>
</linearGradient>
<linearGradient id="paint18_linear_20_129" x1="29.8339" y1="19.776" x2="32.581" y2="19.8257" gradientUnits="userSpaceOnUse">
<stop stop-color="#27419B"/>
<stop offset="1" stop-color="#21B4EE"/>
</linearGradient>
<linearGradient id="paint19_linear_20_129" x1="18.3844" y1="20.2603" x2="24.5192" y2="20.5127" gradientUnits="userSpaceOnUse">
<stop stop-color="#27419B"/>
<stop offset="1" stop-color="#21B4EE"/>
</linearGradient>
<linearGradient id="paint20_linear_20_129" x1="38.5826" y1="19.6457" x2="44.5578" y2="19.8792" gradientUnits="userSpaceOnUse">
<stop stop-color="#27419B"/>
<stop offset="1" stop-color="#21B4EE"/>
</linearGradient>
<linearGradient id="paint21_linear_20_129" x1="19.0115" y1="-1.00913" x2="45.1472" y2="4.91843" gradientUnits="userSpaceOnUse">
<stop stop-color="#27419B"/>
<stop offset="1" stop-color="#21B4EE"/>
</linearGradient>
<linearGradient id="paint22_linear_20_129" x1="28.7733" y1="-3.3626" x2="31.5033" y2="-3.14094" gradientUnits="userSpaceOnUse">
<stop stop-color="#27419B"/>
<stop offset="1" stop-color="#21B4EE"/>
</linearGradient>
<linearGradient id="paint23_linear_20_129" x1="13.1907" y1="3.68966" x2="18.8508" y2="4.89624" gradientUnits="userSpaceOnUse">
<stop stop-color="#27419B"/>
<stop offset="1" stop-color="#21B4EE"/>
</linearGradient>
<linearGradient id="paint24_linear_20_129" x1="41.7109" y1="4.06535" x2="47.3575" y2="5.26907" gradientUnits="userSpaceOnUse">
<stop stop-color="#27419B"/>
<stop offset="1" stop-color="#21B4EE"/>
</linearGradient>
<linearGradient id="paint25_linear_20_129" x1="5.06117" y1="21.1157" x2="10.555" y2="24.1894" gradientUnits="userSpaceOnUse">
<stop stop-color="#27419B"/>
<stop offset="1" stop-color="#21B4EE"/>
</linearGradient>
<linearGradient id="paint26_linear_20_129" x1="48.456" y1="21.6387" x2="53.9498" y2="24.7124" gradientUnits="userSpaceOnUse">
<stop stop-color="#27419B"/>
<stop offset="1" stop-color="#21B4EE"/>
</linearGradient>
</defs>
</svg>
