<svg width="111" height="124" viewBox="0 0 111 124" fill="none" xmlns="http://www.w3.org/2000/svg">
<path d="M0 104.418C0 115.217 8.75489 124 19.5149 124H98.902C99.8763 124 100.667 123.206 100.667 122.229V116.808C100.667 116.439 100.529 116.117 100.339 115.837C100.318 115.805 100.325 115.763 100.304 115.731C97.8147 112.471 96.4979 108.56 96.4979 104.418C96.4979 100.277 97.8147 96.3653 100.304 93.1023C100.325 93.074 100.318 93.0314 100.339 92.9996C100.529 92.7161 100.667 92.3937 100.667 92.0253V88.3761H108.564C109.538 88.3761 110.329 87.5825 110.329 86.6046V81.184C110.329 80.8155 110.192 80.4931 110.001 80.2097C109.98 80.1778 109.99 80.1353 109.966 80.1069C107.477 76.8439 106.164 72.9325 106.164 68.7909C106.164 64.6492 107.48 60.7378 109.966 57.4748C109.987 57.4465 109.98 57.404 110.001 57.3721C110.192 57.0886 110.329 56.7662 110.329 56.3978V50.9771C110.329 49.9993 109.538 49.2057 108.564 49.2057H90.1118V32.6993L104.046 26.1024V38.2475C102.058 38.9773 100.625 40.8763 100.625 43.1225C100.625 45.9923 102.951 48.327 105.811 48.327C108.674 48.327 111 45.9923 111 43.1225C111 40.8763 109.567 38.9773 107.576 38.2475V23.3106C107.576 22.9988 107.473 22.7224 107.336 22.4673C107.3 22.4 107.258 22.3469 107.212 22.2867C107.06 22.0776 106.877 21.9076 106.651 21.7836C106.623 21.7659 106.608 21.7304 106.577 21.7163L62.0467 0.175374C61.5596 -0.058458 60.9983 -0.058458 60.5111 0.175374L15.9777 21.7163C15.3669 22.0103 14.9751 22.6374 14.9786 23.3176C14.9822 24.0014 15.374 24.6214 15.9918 24.912L32.446 32.6993V49.2057H29.1771C23.9524 49.2057 19.0454 51.2393 15.3669 54.931C11.6885 58.6227 9.66568 63.5438 9.66568 68.7909C9.66568 75.5011 13.0476 81.4284 18.1911 84.9607C13.4712 85.2796 9.06555 87.1821 5.70833 90.555C2.02634 94.2467 0 99.1678 0 104.418ZM93.1054 102.647H17.1991C16.2248 102.647 15.434 103.441 15.434 104.418C15.434 105.396 16.2248 106.19 17.1991 106.19H93.1054C93.349 109.322 94.2139 112.315 95.7001 115.036H20.1009C14.2655 115.036 9.51741 110.275 9.51741 104.418C9.51741 101.573 10.6188 98.9056 12.6028 96.9109C14.6327 94.9021 17.2944 93.7967 20.1009 93.7967H95.7037C94.2139 96.5212 93.3525 99.5114 93.1054 102.647ZM102.771 67.0194H26.8613C25.8869 67.0194 25.0962 67.813 25.0962 68.7909C25.0962 69.7687 25.8869 70.5623 26.8613 70.5623H102.771C103.015 73.6978 103.88 76.688 105.366 79.4125H29.7631C23.9277 79.4125 19.1796 74.6473 19.1796 68.7909C19.1796 65.9495 20.281 63.2781 22.265 61.2834C24.2948 59.2746 26.9566 58.1692 29.7631 58.1692H105.362C103.876 60.8937 103.015 63.8875 102.771 67.0194ZM105.814 44.7877C104.9 44.7877 104.158 44.0437 104.158 43.126C104.158 42.2084 104.9 41.4644 105.814 41.4644C106.728 41.4644 107.473 42.2084 107.473 43.126C107.473 44.0437 106.728 44.7877 105.814 44.7877ZM20.8493 23.2928L61.2842 3.73599L101.716 23.2928L90.1153 28.7844V23.6542C90.1153 23.4239 90.0659 23.2043 89.9847 22.9988C89.9565 22.9244 89.9071 22.8677 89.8682 22.7968C89.8012 22.6764 89.7341 22.5559 89.6388 22.4567C89.5788 22.3929 89.5046 22.3433 89.4375 22.2867C89.3387 22.2087 89.2399 22.1308 89.1234 22.0741C89.0386 22.0316 88.9469 22.0068 88.8551 21.9784C88.7774 21.9536 88.7103 21.9111 88.6291 21.9005L82.2077 20.8695C68.3234 18.6304 54.245 18.6268 40.3607 20.8695L33.9358 21.9005C33.8546 21.9147 33.7875 21.9572 33.7099 21.9784C33.6181 22.0068 33.5263 22.0316 33.4416 22.0741C33.3251 22.1308 33.2298 22.2052 33.1274 22.2867C33.0568 22.3433 32.9862 22.3894 32.9262 22.4567C32.8308 22.5595 32.7638 22.6764 32.6967 22.7968C32.6579 22.8642 32.6084 22.9244 32.5802 22.9988C32.499 23.2043 32.4496 23.4204 32.4496 23.6542V28.7844L20.8493 23.2928ZM35.9762 31.5797V25.167L40.9185 24.3734C54.4286 22.1945 68.1293 22.1945 81.6464 24.3734L86.5816 25.1635V31.5797V49.2092H35.9762V31.5797ZM13.1959 68.7909C13.1959 64.4898 14.8551 60.4544 17.8628 57.4358C20.8776 54.4137 24.8949 52.7486 29.1771 52.7486H34.2111H88.3467H106.799V54.6263H29.7631C26.0246 54.6263 22.4803 56.0966 19.7797 58.768C17.1179 61.4429 15.6529 65 15.6529 68.7873C15.6529 76.5959 21.9825 82.9519 29.7666 82.9519H106.803V84.8296H98.9055H29.1771C20.3622 84.8332 13.1959 77.6375 13.1959 68.7909ZM19.5149 88.3761H29.1771H97.1369V90.2538H20.1009C16.3625 90.2538 12.8217 91.7241 10.1175 94.3955C7.45578 97.0668 5.99075 100.624 5.99075 104.415C5.99075 112.223 12.3204 118.576 20.1045 118.576H97.1404V120.454H19.5149C10.7 120.454 3.5302 113.258 3.5302 104.415C3.5302 100.114 5.18939 96.0783 8.20065 93.0598C11.2119 90.0412 15.2293 88.3761 19.5149 88.3761Z" fill="url(#paint0_linear_20_108)"/>
<defs>
<linearGradient id="paint0_linear_20_108" x1="16.5433" y1="-51.6667" x2="112.275" y2="-33.4019" gradientUnits="userSpaceOnUse">
<stop stop-color="#27419B"/>
<stop offset="1" stop-color="#21B4EE"/>
</linearGradient>
</defs>
</svg>
