<svg width="131" height="131" viewBox="0 0 131 131" fill="none" xmlns="http://www.w3.org/2000/svg">
<path d="M116.21 67.6129C108.056 67.6129 101.419 74.2495 101.419 82.4032C101.419 89.8385 106.942 95.9934 114.097 97.0245V103.532C114.097 107.027 111.253 109.871 107.758 109.871H97.1935V6.33871H69.7258H67.6129H59.5649C57.3167 2.44674 53.1501 0 48.5968 0C44.0435 0 39.8768 2.44674 37.6287 6.33871H29.5806H27.4677H0V131H97.1935V114.097H107.758C113.583 114.097 118.323 109.358 118.323 103.532V97.0245C125.477 95.9934 131 89.8385 131 82.4032C131 74.2495 124.363 67.6129 116.21 67.6129ZM31.6935 10.5645H40.3057L40.8593 9.29889C42.2095 6.21616 45.2457 4.22581 48.5968 4.22581C51.9478 4.22581 54.9841 6.21616 56.3342 9.29889L56.8878 10.5645H65.5V19.0161H31.6935V10.5645ZM69.7258 23.2419V19.0161H84.5161V109.871H57.0484C54.2974 109.871 51.9732 108.098 51.0984 105.645H80.2903V78.1774H50.7097V73.8439C64.8682 72.7599 76.0645 60.915 76.0645 46.4839V40.1452C76.0645 36.0968 73.2036 32.7141 69.3983 31.8922C68.5806 29.3355 66.2099 27.4677 63.3871 27.4677H52.8226V40.1452H63.3871C66.0177 40.1452 68.2764 38.533 69.2356 36.2447C70.7611 36.8828 71.8387 38.3893 71.8387 40.1452V46.4839C71.8387 59.2986 61.4115 69.7258 48.5968 69.7258C35.782 69.7258 25.3548 59.2986 25.3548 46.4839V40.1452C25.3548 37.8146 27.2501 35.9194 29.5806 35.9194H29.9694C30.8442 38.3745 33.1684 40.1452 35.9194 40.1452H46.4839V27.4677H35.9194C33.1684 27.4677 30.8442 29.2405 29.9694 31.6935H29.5806C24.9196 31.6935 21.129 35.4841 21.129 40.1452V46.4839C21.129 60.915 32.3253 72.7599 46.4839 73.8439V78.1774H16.9032V105.645H46.6973C47.6798 110.46 51.9478 114.097 57.0484 114.097H84.5161V118.323H12.6774V19.0161H27.4677V23.2419H69.7258ZM50.7097 101.419V82.4032H76.0645V101.419H50.7097ZM65.5 33.8064C65.5 34.9728 64.5534 35.9194 63.3871 35.9194H57.0484V31.6935H63.3871C64.5534 31.6935 65.5 32.6401 65.5 33.8064ZM33.8064 33.8064C33.8064 32.6401 34.753 31.6935 35.9194 31.6935H42.2581V35.9194H35.9194C34.753 35.9194 33.8064 34.9728 33.8064 33.8064ZM46.4839 82.4032V101.419H21.129V82.4032H46.4839ZM92.9677 126.774H4.22581V10.5645H27.4677V14.7903H8.45161V122.548H88.7419V114.097H92.9677V126.774ZM92.9677 109.871H88.7419V14.7903H69.7258V10.5645H92.9677V109.871ZM116.21 92.9677C110.384 92.9677 105.645 88.2285 105.645 82.4032C105.645 76.5779 110.384 71.8387 116.21 71.8387C122.035 71.8387 126.774 76.5779 126.774 82.4032C126.774 88.2285 122.035 92.9677 116.21 92.9677Z" fill="url(#paint0_linear_34_30)"/>
<path d="M116.21 76.0649C112.715 76.0649 109.871 78.9089 109.871 82.4037C109.871 85.8984 112.715 88.7424 116.21 88.7424C119.705 88.7424 122.549 85.8984 122.549 82.4037C122.549 78.9089 119.705 76.0649 116.21 76.0649ZM116.21 84.5166C115.043 84.5166 114.097 83.57 114.097 82.4037C114.097 81.2373 115.043 80.2907 116.21 80.2907C117.376 80.2907 118.323 81.2373 118.323 82.4037C118.323 83.57 117.376 84.5166 116.21 84.5166Z" fill="url(#paint1_linear_34_30)"/>
<path d="M116.21 63.3871C120.871 63.3871 124.661 59.5966 124.661 54.9355V11.9738L116.21 0.703613L107.758 11.9738V54.9355C107.758 59.5966 111.549 63.3871 116.21 63.3871ZM116.21 7.74803L119.907 12.6774H112.512L116.21 7.74803ZM111.984 16.9032H120.435V40.1452H111.984V16.9032ZM111.984 44.371H120.435V48.5968H111.984V44.371ZM111.984 52.8226H120.435V54.9355C120.435 57.266 118.538 59.1613 116.21 59.1613C113.879 59.1613 111.984 57.266 111.984 54.9355V52.8226Z" fill="url(#paint2_linear_34_30)"/>
<path d="M71.8388 92.9678H67.613V97.1936H71.8388V92.9678Z" fill="url(#paint3_linear_34_30)"/>
<path d="M63.3869 92.9678H54.9353V97.1936H63.3869V92.9678Z" fill="url(#paint4_linear_34_30)"/>
<defs>
<linearGradient id="paint0_linear_34_30" x1="19.524" y1="-54.5833" x2="131.529" y2="-30.711" gradientUnits="userSpaceOnUse">
<stop stop-color="#27419B"/>
<stop offset="1" stop-color="#21B4EE"/>
</linearGradient>
<linearGradient id="paint1_linear_34_30" x1="111.761" y1="70.7827" x2="122.6" y2="73.0929" gradientUnits="userSpaceOnUse">
<stop stop-color="#27419B"/>
<stop offset="1" stop-color="#21B4EE"/>
</linearGradient>
<linearGradient id="paint2_linear_34_30" x1="110.277" y1="-25.4145" x2="125.336" y2="-24.549" gradientUnits="userSpaceOnUse">
<stop stop-color="#27419B"/>
<stop offset="1" stop-color="#21B4EE"/>
</linearGradient>
<linearGradient id="paint3_linear_34_30" x1="68.2428" y1="91.207" x2="71.8559" y2="91.9771" gradientUnits="userSpaceOnUse">
<stop stop-color="#27419B"/>
<stop offset="1" stop-color="#21B4EE"/>
</linearGradient>
<linearGradient id="paint4_linear_34_30" x1="56.1949" y1="91.207" x2="62.5877" y2="93.9321" gradientUnits="userSpaceOnUse">
<stop stop-color="#27419B"/>
<stop offset="1" stop-color="#21B4EE"/>
</linearGradient>
</defs>
</svg>
