<svg width="130" height="128" viewBox="0 0 130 128" fill="none" xmlns="http://www.w3.org/2000/svg">
<path d="M18.1922 88.5543C20.5418 88.5543 22.454 86.6422 22.454 84.2925V51.7139C22.454 49.3643 20.5418 47.4521 18.1922 47.4521H18.0402C15.6905 47.4521 13.7784 49.3643 13.7784 51.7139V84.2925C13.7784 86.6422 15.6905 88.5543 18.0402 88.5543H18.1922ZM16.6196 84.2925V51.7139C16.6196 50.9298 17.256 50.2933 18.0402 50.2933H18.1922C18.9763 50.2933 19.6128 50.9298 19.6128 51.7139V84.2925C19.6128 85.0767 18.9763 85.7131 18.1922 85.7131H18.0402C17.256 85.7131 16.6196 85.0767 16.6196 84.2925Z" fill="url(#paint0_linear_20_115)"/>
<path d="M59.7602 64.9085C59.2531 64.0292 57.8069 64.0292 57.2998 64.9085L39.3377 96.0196C39.0835 96.46 39.0835 96.9998 39.3377 97.4402C39.592 97.8806 40.0608 98.1505 40.568 98.1505H76.4906C76.9978 98.1505 77.468 97.8806 77.7209 97.4402C77.9737 96.9998 77.9751 96.46 77.7209 96.0196L59.7602 64.9085ZM43.0299 95.3093L58.53 68.4614L74.0301 95.3093H43.0299Z" fill="url(#paint1_linear_20_115)"/>
<path d="M57.1094 76.1638V85.9375C57.1094 86.7231 57.7444 87.3581 58.53 87.3581C59.3156 87.3581 59.9506 86.7231 59.9506 85.9375V76.1638C59.9506 75.3782 59.3156 74.7432 58.53 74.7432C57.7444 74.7432 57.1094 75.3796 57.1094 76.1638Z" fill="url(#paint2_linear_20_115)"/>
<path d="M58.53 88.7219C57.7444 88.7219 57.1094 89.3569 57.1094 90.1425V91.3926C57.1094 92.1782 57.7444 92.8132 58.53 92.8132C59.3156 92.8132 59.9506 92.1782 59.9506 91.3926V90.1425C59.9506 89.3569 59.3141 88.7219 58.53 88.7219Z" fill="url(#paint3_linear_20_115)"/>
<path d="M121.869 42.5582H73.6565L91.5944 9.63591C91.9126 9.70126 92.2422 9.73677 92.5803 9.73677C95.2652 9.73677 97.4487 7.55331 97.4487 4.86839C97.4487 2.18346 95.2652 0 92.5803 0C89.8954 0 87.7119 2.18346 87.7119 4.86839C87.7119 6.19096 88.246 7.38852 89.1041 8.26645L71.2657 41.0098L53.4244 8.26645C54.2824 7.38852 54.8151 6.19096 54.8151 4.86981C54.8151 2.18488 52.6317 0.00142049 49.9468 0.00142049C47.2618 0.00142049 45.0784 2.18488 45.0784 4.86981C45.0784 7.55473 47.2618 9.73819 49.9468 9.73819C50.2849 9.73819 50.6159 9.70268 50.9341 9.63733L68.872 42.5597H32.4606C34.9396 39.3917 36.3332 35.4794 36.3332 31.4051C36.3332 25.4457 33.4039 19.8614 28.5 16.4661C28.0639 16.165 27.4999 16.1337 27.0325 16.3766C26.5637 16.6224 26.2711 17.1068 26.2711 17.6353V29.3822L18.1666 35.2535L10.0763 29.3836V17.6353C10.0763 17.1068 9.78365 16.6224 9.31627 16.3766C8.84748 16.1323 8.2835 16.1664 7.85022 16.4661C2.93353 19.8571 0 25.4415 0 31.4066C0 38.1004 3.58701 44.1152 9.42424 47.3101V88.7021C3.58985 91.8956 0 97.9104 0 104.606C0 110.568 2.93353 116.154 7.8488 119.546C8.09172 119.712 8.373 119.798 8.6557 119.798C8.88157 119.798 9.10745 119.744 9.31627 119.636C9.78365 119.39 10.0763 118.905 10.0763 118.377V106.629L12.953 104.542V112.089C12.953 116.34 16.4107 119.798 20.6597 119.798H23.2466V122.947C23.2466 125.199 25.0792 127.031 27.3309 127.031H33.5034C35.755 127.031 37.5876 125.199 37.5876 122.947V119.798H103.311V122.947C103.311 125.199 105.144 127.031 107.396 127.031H113.57C115.821 127.031 117.654 125.199 117.654 122.947V119.798H121.869C126.119 119.798 129.577 116.34 129.577 112.089V50.2664C129.575 46.016 126.119 42.5582 121.869 42.5582ZM92.5803 2.84261C93.6983 2.84261 94.6075 3.7518 94.6075 4.86981C94.6075 5.98782 93.6983 6.897 92.5803 6.897C91.4623 6.897 90.5531 5.98782 90.5531 4.86981C90.5531 3.7518 91.4623 2.84261 92.5803 2.84261ZM47.921 4.86981C47.921 3.7518 48.8302 2.84261 49.9482 2.84261C51.0662 2.84261 51.9754 3.7518 51.9754 4.86981C51.9754 5.98782 51.0662 6.897 49.9482 6.897C48.8302 6.897 47.921 5.98782 47.921 4.86981ZM7.82181 104.751C7.45245 105.018 7.2351 105.445 7.2351 105.901V115.334C4.44505 112.497 2.83977 108.654 2.83977 104.604C2.83977 98.7045 6.14408 93.4312 11.4642 90.8415C11.9529 90.6028 12.264 90.107 12.264 89.5644V46.4436C12.264 45.8995 11.9543 45.4051 11.4642 45.1665C6.14408 42.5767 2.83977 37.3035 2.83977 31.4037C2.83977 27.3522 4.44505 23.5095 7.2351 20.6725V30.1053C7.2351 30.5599 7.45245 30.9875 7.82181 31.256L17.3313 38.1558C17.8285 38.5166 18.5019 38.5166 18.9991 38.1558L28.5256 31.256C28.8949 30.9889 29.1123 30.5613 29.1123 30.1053V20.681C31.8924 23.518 33.492 27.3593 33.492 31.4037C33.492 35.8047 31.5841 39.9969 28.2542 42.9134C27.247 43.7998 26.1063 44.5584 24.8619 45.1693C24.3746 45.408 24.0663 45.9023 24.0663 46.4436V51.4753V89.5644C24.0663 90.1085 24.3774 90.6028 24.8661 90.8415C30.1863 93.4298 33.4906 98.7031 33.4906 104.604C33.4906 105.154 33.4536 105.7 33.3954 106.241C33.2959 107.157 33.1212 108.063 32.857 108.95C32.7163 109.419 32.5544 109.883 32.3683 110.342C32.3683 110.343 32.3683 110.346 32.3669 110.346C32.1197 110.963 31.8185 111.551 31.4961 112.125C31.4151 112.27 31.3298 112.413 31.2432 112.555C30.9179 113.091 30.5698 113.609 30.182 114.101C30.1607 114.128 30.1436 114.158 30.1209 114.185C29.8112 114.571 29.4561 114.921 29.1095 115.277V110.878V105.903C29.1095 105.789 29.0952 105.677 29.0697 105.569C28.9901 105.243 28.7983 104.952 28.5227 104.753L26.5595 103.333L18.9962 97.855C18.499 97.4941 17.8242 97.4927 17.327 97.8564L7.82181 104.751ZM35.9809 108.146C36.0008 108.049 36.0135 107.951 36.0306 107.853C36.1073 107.433 36.1684 107.009 36.2153 106.583C36.2309 106.442 36.2465 106.303 36.2579 106.163C36.3019 105.646 36.3332 105.127 36.3332 104.606C36.3332 104.187 36.319 103.772 36.292 103.358C35.8772 97.1688 32.3811 91.6953 26.9104 88.7006V52.8959H93.1826V109.454H35.6712C35.7919 109.022 35.8928 108.585 35.9809 108.146ZM23.876 104.893L26.2725 106.627V109.456H23.876V104.893ZM15.7956 112.087V102.482L18.168 100.756L21.0362 102.833V110.875C21.0362 111.66 21.6712 112.295 22.4568 112.295H26.2739V116.952H24.6701H20.6626C17.9777 116.953 15.7956 114.77 15.7956 112.087ZM34.7478 122.944C34.7478 123.629 34.1895 124.187 33.5048 124.187H27.3323C26.6476 124.187 26.0893 123.629 26.0893 122.944V119.795H27.6931H34.7478V122.944ZM114.813 122.944C114.813 123.629 114.254 124.187 113.57 124.187H107.396C106.711 124.187 106.153 123.629 106.153 122.944V119.795H114.813V122.944ZM126.734 112.087C126.734 114.77 124.551 116.953 121.867 116.953H116.232H104.731H36.1684H31.4875C31.4904 116.951 31.4918 116.949 31.4932 116.946C31.8356 116.578 32.1566 116.193 32.4663 115.799C32.5615 115.678 32.6496 115.551 32.7405 115.429C32.9522 115.145 33.1553 114.857 33.3499 114.56C33.4451 114.415 33.5374 114.267 33.6298 114.119C33.8145 113.818 33.9892 113.511 34.1554 113.2C34.2293 113.062 34.306 112.929 34.3756 112.79C34.4566 112.628 34.5333 112.463 34.61 112.298H94.6046C95.3902 112.298 96.0252 111.663 96.0252 110.878V51.4753C96.0252 50.6897 95.3902 50.0547 94.6046 50.0547H26.9104V47.3059C27.4559 47.0061 27.9787 46.6751 28.4858 46.3257C28.652 46.2106 28.8069 46.0827 28.9702 45.9634C29.2217 45.7773 29.4802 45.5997 29.7189 45.4009H121.869C124.552 45.4009 126.736 47.5843 126.736 50.2678L126.734 112.087Z" fill="url(#paint4_linear_20_115)"/>
<path d="M104.249 81.6119C107.279 81.6119 109.743 79.1486 109.743 76.1199C109.743 73.0898 107.279 70.6265 104.249 70.6265C101.22 70.6265 98.7571 73.0898 98.7571 76.1199C98.7571 79.1486 101.22 81.6119 104.249 81.6119ZM104.249 73.4677C105.711 73.4677 106.901 74.6581 106.901 76.1199C106.901 77.5817 105.711 78.7707 104.249 78.7707C102.787 78.7707 101.598 77.5817 101.598 76.1199C101.598 74.6581 102.787 73.4677 104.249 73.4677Z" fill="url(#paint5_linear_20_115)"/>
<path d="M118.505 70.6265C115.475 70.6265 113.011 73.0898 113.011 76.1199C113.011 79.1486 115.475 81.6119 118.505 81.6119C121.534 81.6119 123.997 79.1486 123.997 76.1199C123.997 73.0898 121.532 70.6265 118.505 70.6265ZM118.505 78.7707C117.043 78.7707 115.853 77.5817 115.853 76.1199C115.853 74.6581 117.043 73.4677 118.505 73.4677C119.967 73.4677 121.156 74.6581 121.156 76.1199C121.156 77.5817 119.967 78.7707 118.505 78.7707Z" fill="url(#paint6_linear_20_115)"/>
<path d="M104.249 67.0392C107.279 67.0392 109.743 64.5759 109.743 61.5472C109.743 58.5185 107.279 56.0552 104.249 56.0552C101.22 56.0552 98.7571 58.5185 98.7571 61.5472C98.7571 64.5759 101.22 67.0392 104.249 67.0392ZM104.249 58.8964C105.711 58.8964 106.901 60.0854 106.901 61.5472C106.901 63.009 105.711 64.198 104.249 64.198C102.787 64.198 101.598 63.009 101.598 61.5472C101.598 60.0854 102.787 58.8964 104.249 58.8964Z" fill="url(#paint7_linear_20_115)"/>
<path d="M118.505 56.0552C115.475 56.0552 113.011 58.5185 113.011 61.5472C113.011 64.5759 115.475 67.0392 118.505 67.0392C121.534 67.0392 123.997 64.5759 123.997 61.5472C123.997 58.5185 121.532 56.0552 118.505 56.0552ZM118.505 64.198C117.043 64.198 115.853 63.009 115.853 61.5472C115.853 60.0854 117.043 58.8964 118.505 58.8964C119.967 58.8964 121.156 60.0854 121.156 61.5472C121.156 63.009 119.967 64.198 118.505 64.198Z" fill="url(#paint8_linear_20_115)"/>
<path d="M122.49 101.036H100.266C99.4801 101.036 98.8451 101.671 98.8451 102.456C98.8451 103.242 99.4801 103.877 100.266 103.877H122.491C123.277 103.877 123.912 103.242 123.912 102.456C123.912 101.671 123.275 101.036 122.49 101.036Z" fill="url(#paint9_linear_20_115)"/>
<path d="M122.49 95.4854H100.266C99.4801 95.4854 98.8451 96.1204 98.8451 96.9059C98.8451 97.6915 99.4801 98.3265 100.266 98.3265H122.491C123.277 98.3265 123.912 97.6915 123.912 96.9059C123.912 96.1204 123.275 95.4854 122.49 95.4854Z" fill="url(#paint10_linear_20_115)"/>
<path d="M122.49 89.9038H100.266C99.4801 89.9038 98.8451 90.5388 98.8451 91.3244C98.8451 92.11 99.4801 92.745 100.266 92.745H122.491C123.277 92.745 123.912 92.11 123.912 91.3244C123.912 90.5388 123.275 89.9038 122.49 89.9038Z" fill="url(#paint11_linear_20_115)"/>
<path d="M122.49 106.699H100.266C99.4801 106.699 98.8451 107.334 98.8451 108.12C98.8451 108.906 99.4801 109.541 100.266 109.541H122.491C123.277 109.541 123.912 108.906 123.912 108.12C123.912 107.334 123.275 106.699 122.49 106.699Z" fill="url(#paint12_linear_20_115)"/>
<defs>
<linearGradient id="paint0_linear_20_115" x1="15.0714" y1="30.3263" x2="22.8103" y2="30.6744" gradientUnits="userSpaceOnUse">
<stop stop-color="#27419B"/>
<stop offset="1" stop-color="#21B4EE"/>
</linearGradient>
<linearGradient id="paint1_linear_20_115" x1="44.9244" y1="50.1234" x2="77.6307" y2="58.0941" gradientUnits="userSpaceOnUse">
<stop stop-color="#27419B"/>
<stop offset="1" stop-color="#21B4EE"/>
</linearGradient>
<linearGradient id="paint2_linear_20_115" x1="57.5328" y1="69.487" x2="60.0666" y2="69.6086" gradientUnits="userSpaceOnUse">
<stop stop-color="#27419B"/>
<stop offset="1" stop-color="#21B4EE"/>
</linearGradient>
<linearGradient id="paint3_linear_20_115" x1="57.5328" y1="87.0172" x2="60.018" y2="87.385" gradientUnits="userSpaceOnUse">
<stop stop-color="#27419B"/>
<stop offset="1" stop-color="#21B4EE"/>
</linearGradient>
<linearGradient id="paint4_linear_20_115" x1="19.3119" y1="-52.9297" x2="129.906" y2="-28.8858" gradientUnits="userSpaceOnUse">
<stop stop-color="#27419B"/>
<stop offset="1" stop-color="#21B4EE"/>
</linearGradient>
<linearGradient id="paint5_linear_20_115" x1="100.394" y1="66.0492" x2="109.787" y2="68.0511" gradientUnits="userSpaceOnUse">
<stop stop-color="#27419B"/>
<stop offset="1" stop-color="#21B4EE"/>
</linearGradient>
<linearGradient id="paint6_linear_20_115" x1="114.649" y1="66.0492" x2="124.041" y2="68.0511" gradientUnits="userSpaceOnUse">
<stop stop-color="#27419B"/>
<stop offset="1" stop-color="#21B4EE"/>
</linearGradient>
<linearGradient id="paint7_linear_20_115" x1="100.394" y1="51.4785" x2="109.787" y2="53.4806" gradientUnits="userSpaceOnUse">
<stop stop-color="#27419B"/>
<stop offset="1" stop-color="#21B4EE"/>
</linearGradient>
<linearGradient id="paint8_linear_20_115" x1="114.649" y1="51.4785" x2="124.041" y2="53.4806" gradientUnits="userSpaceOnUse">
<stop stop-color="#27419B"/>
<stop offset="1" stop-color="#21B4EE"/>
</linearGradient>
<linearGradient id="paint9_linear_20_115" x1="102.581" y1="99.8518" x2="107.521" y2="109.14" gradientUnits="userSpaceOnUse">
<stop stop-color="#27419B"/>
<stop offset="1" stop-color="#21B4EE"/>
</linearGradient>
<linearGradient id="paint10_linear_20_115" x1="102.581" y1="94.3015" x2="107.521" y2="103.59" gradientUnits="userSpaceOnUse">
<stop stop-color="#27419B"/>
<stop offset="1" stop-color="#21B4EE"/>
</linearGradient>
<linearGradient id="paint11_linear_20_115" x1="102.581" y1="88.72" x2="107.521" y2="98.0084" gradientUnits="userSpaceOnUse">
<stop stop-color="#27419B"/>
<stop offset="1" stop-color="#21B4EE"/>
</linearGradient>
<linearGradient id="paint12_linear_20_115" x1="102.581" y1="105.516" x2="107.521" y2="114.804" gradientUnits="userSpaceOnUse">
<stop stop-color="#27419B"/>
<stop offset="1" stop-color="#21B4EE"/>
</linearGradient>
</defs>
</svg>
