<svg width="63" height="63" viewBox="0 0 63 63" fill="none" xmlns="http://www.w3.org/2000/svg">
<path d="M21.0025 31.5C21.0025 25.7012 25.7023 20.9992 31.5013 20.9992C37.3003 20.9992 42.0025 25.7012 42.0025 31.5C42.0025 37.2988 37.3003 42.0008 31.5013 42.0008C25.7023 42.0008 21.0025 37.2988 21.0025 31.5ZM15.3257 31.5C15.3257 40.4334 22.5675 47.6749 31.5013 47.6749C40.435 47.6749 47.6768 40.4334 47.6768 31.5C47.6768 22.5666 40.435 15.3251 31.5013 15.3251C22.5675 15.3251 15.3257 22.5666 15.3257 31.5ZM44.537 14.6838C44.5362 16.7714 46.2279 18.4645 48.3156 18.4653C50.4033 18.4661 52.0965 16.7744 52.0973 14.6868C52.0981 12.5992 50.4064 10.9061 48.3186 10.9053C46.2319 10.9063 44.5388 12.5971 44.537 14.6838ZM18.7748 57.1402C15.7035 57.0004 14.0342 56.4888 12.9248 56.0566C11.4541 55.4841 10.4047 54.8022 9.30144 53.7004C8.19814 52.5987 7.51519 51.5504 6.94515 50.0797C6.5127 48.9709 6.00112 47.3012 5.8615 44.23C5.70878 40.9097 5.67829 39.9123 5.67829 31.5003C5.67829 23.0882 5.7113 22.0936 5.8615 18.7705C6.00137 15.6993 6.51673 14.0329 6.94515 12.9208C7.51771 11.4501 8.19965 10.4008 9.30144 9.29754C10.4032 8.19428 11.4516 7.51136 12.9248 6.94134C14.0337 6.50891 15.7035 5.99735 18.7748 5.85774C22.0952 5.70503 23.0927 5.67454 31.5013 5.67454C39.9098 5.67454 40.9083 5.70755 44.2315 5.85774C47.3028 5.9976 48.9693 6.51294 50.0815 6.94134C51.5522 7.51136 52.6016 8.1958 53.7049 9.29754C54.8082 10.3993 55.4886 11.4501 56.0612 12.9208C56.4936 14.0296 57.0052 15.6993 57.1448 18.7705C57.2975 22.0936 57.328 23.0882 57.328 31.5003C57.328 39.9123 57.2975 40.9069 57.1448 44.23C57.0049 47.3012 56.4908 48.9704 56.0612 50.0797C55.4886 51.5504 54.8066 52.5997 53.7049 53.7004C52.6031 54.8012 51.5522 55.4841 50.0815 56.0566C48.9726 56.4891 47.3028 57.0006 44.2315 57.1402C40.9111 57.293 39.9136 57.3234 31.5013 57.3234C23.0889 57.3234 22.0942 57.293 18.7748 57.1402ZM18.5139 0.190764C15.1604 0.343476 12.8689 0.875196 10.8677 1.65388C8.79515 2.45801 7.04066 3.53682 5.28742 5.28721C3.53419 7.0376 2.45811 8.7948 1.65394 10.8672C0.875231 12.8696 0.34349 15.1598 0.190772 18.5132C0.0355334 21.8718 0 22.9456 0 31.5C0 40.0544 0.0355334 41.1282 0.190772 44.4868C0.34349 47.8404 0.875231 50.1304 1.65394 52.1328C2.45811 54.2039 3.53444 55.9632 5.28742 57.7128C7.04041 59.4624 8.79515 60.5397 10.8677 61.3461C12.8727 62.1248 15.1604 62.6565 18.5139 62.8092C21.8745 62.962 22.9465 63 31.5013 63C40.056 63 41.1298 62.9645 44.4886 62.8092C47.8423 62.6565 50.1324 62.1248 52.1348 61.3461C54.2061 60.5397 55.9619 59.4632 57.7151 57.7128C59.4683 55.9624 60.5421 54.2039 61.3486 52.1328C62.1273 50.1304 62.6616 47.8402 62.8117 44.4868C62.9645 41.1256 63 40.0544 63 31.5C63 22.9456 62.9645 21.8718 62.8117 18.5132C62.659 15.1596 62.1273 12.8684 61.3486 10.8672C60.5421 8.79606 59.4656 7.04038 57.7151 5.28721C55.9646 3.53405 54.2061 2.45801 52.1374 1.65388C50.1324 0.875196 47.8421 0.340956 44.4911 0.190764C41.1323 0.038052 40.0585 0 31.5038 0C22.949 0 21.8745 0.035532 18.5139 0.190764Z" fill="url(#paint0_linear_17_66)"/>
<defs>
<linearGradient id="paint0_linear_17_66" x1="9.38942" y1="-26.25" x2="63.2545" y2="-14.7694" gradientUnits="userSpaceOnUse">
<stop stop-color="#27419B"/>
<stop offset="1" stop-color="#21B4EE"/>
</linearGradient>
</defs>
</svg>
