<svg width="64" height="63" viewBox="0 0 64 63" fill="none" xmlns="http://www.w3.org/2000/svg">
<path d="M14.5919 63H1.52701V20.9347H14.5919V63ZM8.05246 15.1934C3.87954 15.1934 0.490784 11.7346 0.490784 7.56168C0.490784 3.38875 3.87954 0 8.05246 0C12.2254 0 15.6141 3.38875 15.6141 7.56168C15.6281 11.7346 12.2394 15.1934 8.05246 15.1934ZM63.4908 63H50.4539V42.5134C50.4539 37.6264 50.3559 31.367 43.6624 31.367C36.8709 31.367 35.8346 36.6741 35.8346 42.1494V63H22.7837V20.9347H35.3165V26.6759H35.4986C37.249 23.3712 41.5059 19.8844 47.8633 19.8844C61.0682 19.8704 63.5048 28.5803 63.5048 39.8949V63H63.4908Z" fill="url(#paint0_linear_17_70)"/>
<defs>
<linearGradient id="paint0_linear_17_70" x1="9.88229" y1="-26.25" x2="63.7584" y2="-14.7645" gradientUnits="userSpaceOnUse">
<stop stop-color="#27419B"/>
<stop offset="1" stop-color="#21B4EE"/>
</linearGradient>
</defs>
</svg>
