<svg width="64" height="47" viewBox="0 0 64 47" fill="none" xmlns="http://www.w3.org/2000/svg">
<path d="M63.5048 6.42014V42.7269C63.5048 45.0866 61.5833 46.9974 59.2103 46.9974H49.1854V22.7946L32.0048 35.6112L14.8241 22.7946V47H4.79926C4.23508 47 3.67642 46.8895 3.15522 46.6747C2.63402 46.4599 2.16048 46.1451 1.76166 45.7483C1.36285 45.3515 1.04657 44.8804 0.830907 44.362C0.615243 43.8435 0.504417 43.2879 0.504762 42.7269V6.42014C0.504762 1.13948 6.56589 -1.87543 10.8131 1.29349L14.8241 4.28751L32.0048 17.0989L49.1854 4.28229L53.1964 1.29349C57.441 -1.87282 63.5048 1.13948 63.5048 6.42014Z" fill="url(#paint0_linear_17_72)"/>
<defs>
<linearGradient id="paint0_linear_17_72" x1="9.89418" y1="-19.5833" x2="61.9569" y2="-4.70942" gradientUnits="userSpaceOnUse">
<stop stop-color="#27419B"/>
<stop offset="1" stop-color="#21B4EE"/>
</linearGradient>
</defs>
</svg>
