<svg width="76" height="140" viewBox="0 0 76 140" fill="none" xmlns="http://www.w3.org/2000/svg">
<path d="M38.9219 0.419922C45.5951 0.419922 51.2917 1.72201 56.0117 4.32617C60.7318 6.76758 64.4753 10.1042 67.2422 14.3359C70.0091 18.4049 72.0436 23.125 73.3457 28.4961C74.8105 33.8672 75.543 39.401 75.543 45.0977C75.543 65.7682 69.8464 83.7533 58.4531 99.0527C47.2227 114.352 33.388 127.861 16.9492 139.58L0.103516 119.561C3.68424 116.468 7.42773 113.05 11.334 109.307C15.403 105.726 19.0651 101.738 22.3203 97.3438C25.7383 93.112 28.5866 88.6361 30.8652 83.916C33.3066 79.3587 34.5273 74.5573 34.5273 69.5117C25.5755 68.2096 18.1699 64.3034 12.3105 57.793C6.45117 51.2826 3.52148 43.7142 3.52148 35.0879C3.52148 25.3223 7.02083 17.1029 14.0195 10.4297C21.0182 3.75651 29.319 0.419922 38.9219 0.419922Z" fill="black"/>
</svg>
