<svg width="73" height="57" viewBox="0 0 73 57" fill="none" xmlns="http://www.w3.org/2000/svg">
<path d="M49.5132 0.327256C53.7249 0.327256 58.2681 2.01069 60.9589 4.7834C64.2931 4.12983 67.4324 2.96133 70.2597 1.33732C69.1677 4.66457 66.8474 7.43729 63.8057 9.19994C66.7694 8.84345 69.5967 8.09085 72.229 6.96196C70.2597 9.8139 67.7833 12.3291 64.9171 14.3295C64.9366 14.9434 64.9561 15.5574 64.9561 16.1713C64.9561 34.9862 50.4687 56.6727 23.5022 56.6727C14.5524 56.6727 7.24049 54.2961 0.747489 50.2559C1.8979 50.3945 3.06781 50.4539 4.23772 50.4539C11.1207 50.4539 17.4382 48.1764 22.4688 44.354C16.0538 44.2351 10.6332 40.1157 8.76138 34.4712C9.65831 34.6297 10.5747 34.7287 11.5302 34.7287C12.8561 34.7287 14.1625 34.5505 15.3909 34.2336C8.68338 32.9264 3.86725 27.1434 3.86725 20.2512V20.0729C5.8366 21.1424 8.09843 21.7762 10.5162 21.8554C6.57754 19.3005 3.98424 14.9434 3.98424 10.0119C3.98424 7.39767 4.70569 4.96165 5.97309 2.86231C13.207 11.4577 23.7752 17.1616 35.9618 17.7557C35.7083 16.7259 35.5718 15.6168 35.5718 14.5077C35.5718 6.64508 41.4019 0.327256 49.5132 0.327256Z" fill="url(#paint0_linear_17_71)"/>
<defs>
<linearGradient id="paint0_linear_17_71" x1="9.12976" y1="-29.25" x2="74.3106" y2="-12.0499" gradientUnits="userSpaceOnUse">
<stop stop-color="#27419B"/>
<stop offset="1" stop-color="#21B4EE"/>
</linearGradient>
</defs>
</svg>
