<svg width="45" height="46" viewBox="0 0 45 46" fill="none" xmlns="http://www.w3.org/2000/svg">
<path d="M21.4 0.0266023C9.41868 0.605047 -0.0362423 10.7224 0.000104441 22.8847C0.0111712 26.5891 0.893149 30.0855 2.44901 33.1748L0.0602121 44.9322C-0.0690086 45.5682 0.496698 46.1251 1.1198 45.9754L12.482 43.2459C15.4011 44.7203 18.6799 45.5719 22.15 45.6256C34.396 45.8153 44.6071 35.9558 44.9888 23.5435C45.3979 10.2383 34.5679 -0.609269 21.4 0.0266023ZM34.9575 35.4456C31.63 38.8196 27.2058 40.6777 22.5 40.6777C19.7446 40.6777 17.1066 40.0508 14.659 38.8146L13.0767 38.0154L6.11048 39.6889L7.57682 32.4713L6.79727 30.9234C5.52665 28.4003 4.88239 25.6719 4.88239 22.8141C4.88239 18.0425 6.71492 13.5567 10.0424 10.1826C13.3402 6.83878 17.8366 4.95042 22.5004 4.95042C27.2061 4.95053 31.6301 6.80864 34.9576 10.1825C38.2851 13.5565 40.1177 18.0423 40.1178 22.8138C40.1177 27.5428 38.2553 32.1019 34.9575 35.4456Z" fill="url(#paint0_linear_37_364)"/>
<path d="M34.9575 35.4456C31.63 38.8196 27.2058 40.6777 22.5 40.6777C19.7446 40.6777 17.1066 40.0508 14.659 38.8146L13.0767 38.0154L6.11048 39.6889L7.57682 32.4713L6.79727 30.9234C5.52665 28.4003 4.88239 25.6719 4.88239 22.8141C4.88239 18.0425 6.71492 13.5567 10.0424 10.1826C13.3402 6.83878 17.8366 4.95042 22.5004 4.95042C27.2061 4.95053 31.6301 6.80864 34.9576 10.1825C38.2851 13.5565 40.1177 18.0423 40.1178 22.8138C40.1177 27.5428 38.2553 32.1019 34.9575 35.4456Z" fill="url(#paint1_linear_37_364)"/>
<path d="M33.7951 27.7496L29.3314 26.5628C28.7445 26.4068 28.1126 26.5609 27.685 26.9644L26.5934 27.9942C26.1331 28.4285 25.4347 28.568 24.8255 28.3398C22.7139 27.5485 18.272 23.8914 17.1377 22.0621C16.8104 21.5345 16.8645 20.8748 17.2664 20.3933L18.2194 19.2516C18.5928 18.8043 18.6715 18.2036 18.4246 17.6865L16.5466 13.7534C16.0968 12.8113 14.7967 12.5371 13.9474 13.2022C12.7016 14.1779 11.2234 15.6606 11.0437 17.3032C10.7269 20.1992 12.0682 23.8499 17.1402 28.2335C22.9998 33.2977 27.6922 33.9667 30.7473 33.2814C32.4802 32.8928 33.865 31.3347 34.739 30.0589C35.3349 29.1891 34.8644 28.0339 33.7951 27.7496Z" fill="white"/>
<defs>
<linearGradient id="paint0_linear_37_364" x1="6.70673" y1="-19.1667" x2="45.2539" y2="-11.1295" gradientUnits="userSpaceOnUse">
<stop stop-color="#27419B"/>
<stop offset="1" stop-color="#21B4EE"/>
</linearGradient>
<linearGradient id="paint1_linear_37_364" x1="6.70673" y1="-19.1667" x2="45.2539" y2="-11.1295" gradientUnits="userSpaceOnUse">
<stop stop-color="#27419B"/>
<stop offset="1" stop-color="#21B4EE"/>
</linearGradient>
</defs>
</svg>
